<mxfile host="app.diagrams.net" modified="2023-12-25T03:47:07.407Z" agent="Mozilla/5.0 (Windows NT 10.0; Win64; x64) AppleWebKit/537.36 (KHTML, like Gecko) Chrome/120.0.0.0 Safari/537.36" etag="vSM2-qQ44b46IuVc91E9" version="22.1.11" type="github">
  <diagram name="第 1 页" id="VuKKYdippvmsp-2qlO2M">
    <mxGraphModel dx="550" dy="273" grid="1" gridSize="10" guides="1" tooltips="1" connect="1" arrows="1" fold="1" page="1" pageScale="1" pageWidth="827" pageHeight="1169" math="0" shadow="0">
      <root>
        <mxCell id="0" />
        <mxCell id="1" parent="0" />
        <mxCell id="bTk-zeeERNAB_hrSNlrv-1" value="主站（线下店）" style="rounded=0;whiteSpace=wrap;html=1;" vertex="1" parent="1">
          <mxGeometry x="50" y="370" width="120" height="40" as="geometry" />
        </mxCell>
        <mxCell id="bTk-zeeERNAB_hrSNlrv-2" value="分销系统" style="rounded=0;whiteSpace=wrap;html=1;" vertex="1" parent="1">
          <mxGeometry x="190" y="370" width="120" height="40" as="geometry" />
        </mxCell>
        <mxCell id="bTk-zeeERNAB_hrSNlrv-3" value="订单中心" style="rounded=0;whiteSpace=wrap;html=1;" vertex="1" parent="1">
          <mxGeometry x="340" y="370" width="120" height="40" as="geometry" />
        </mxCell>
        <mxCell id="bTk-zeeERNAB_hrSNlrv-4" value="企业购" style="rounded=0;whiteSpace=wrap;html=1;" vertex="1" parent="1">
          <mxGeometry x="490" y="370" width="120" height="40" as="geometry" />
        </mxCell>
        <mxCell id="bTk-zeeERNAB_hrSNlrv-5" value="优采" style="rounded=0;whiteSpace=wrap;html=1;" vertex="1" parent="1">
          <mxGeometry x="650" y="370" width="120" height="40" as="geometry" />
        </mxCell>
        <mxCell id="bTk-zeeERNAB_hrSNlrv-6" value="线下数据（精卫上传）" style="rounded=0;whiteSpace=wrap;html=1;" vertex="1" parent="1">
          <mxGeometry x="820" y="370" width="140" height="40" as="geometry" />
        </mxCell>
      </root>
    </mxGraphModel>
  </diagram>
</mxfile>
